<svg id="visual" viewBox="0 0 900 600" width="900" height="600" xmlns="http://www.w3.org/2000/svg" xmlns:xlink="http://www.w3.org/1999/xlink" version="1.1"><rect x="0" y="0" width="900" height="600" fill="#001220"></rect><path d="M0 431L21.5 433.7C43 436.3 86 441.7 128.8 436.3C171.7 431 214.3 415 257.2 405.8C300 396.7 343 394.3 385.8 396.7C428.7 399 471.3 406 514.2 410C557 414 600 415 642.8 416C685.7 417 728.3 418 771.2 410.2C814 402.3 857 385.7 878.5 377.3L900 369L900 601L878.5 601C857 601 814 601 771.2 601C728.3 601 685.7 601 642.8 601C600 601 557 601 514.2 601C471.3 601 428.7 601 385.8 601C343 601 300 601 257.2 601C214.3 601 171.7 601 128.8 601C86 601 43 601 21.5 601L0 601Z" fill="#51bb65"></path><path d="M0 449L21.5 447.3C43 445.7 86 442.3 128.8 437.7C171.7 433 214.3 427 257.2 419.7C300 412.3 343 403.7 385.8 410C428.7 416.3 471.3 437.7 514.2 451C557 464.3 600 469.7 642.8 460C685.7 450.3 728.3 425.7 771.2 418.8C814 412 857 423 878.5 428.5L900 434L900 601L878.5 601C857 601 814 601 771.2 601C728.3 601 685.7 601 642.8 601C600 601 557 601 514.2 601C471.3 601 428.7 601 385.8 601C343 601 300 601 257.2 601C214.3 601 171.7 601 128.8 601C86 601 43 601 21.5 601L0 601Z" fill="#9fa43d"></path><path d="M0 444L21.5 453.3C43 462.7 86 481.3 128.8 490C171.7 498.7 214.3 497.3 257.2 496.5C300 495.7 343 495.3 385.8 496.2C428.7 497 471.3 499 514.2 489.3C557 479.7 600 458.3 642.8 456.2C685.7 454 728.3 471 771.2 476.5C814 482 857 476 878.5 473L900 470L900 601L878.5 601C857 601 814 601 771.2 601C728.3 601 685.7 601 642.8 601C600 601 557 601 514.2 601C471.3 601 428.7 601 385.8 601C343 601 300 601 257.2 601C214.3 601 171.7 601 128.8 601C86 601 43 601 21.5 601L0 601Z" fill="#c88a48"></path><path d="M0 516L21.5 517.5C43 519 86 522 128.8 520C171.7 518 214.3 511 257.2 507.2C300 503.3 343 502.7 385.8 503.2C428.7 503.7 471.3 505.3 514.2 510C557 514.7 600 522.3 642.8 521.3C685.7 520.3 728.3 510.7 771.2 511.7C814 512.7 857 524.3 878.5 530.2L900 536L900 601L878.5 601C857 601 814 601 771.2 601C728.3 601 685.7 601 642.8 601C600 601 557 601 514.2 601C471.3 601 428.7 601 385.8 601C343 601 300 601 257.2 601C214.3 601 171.7 601 128.8 601C86 601 43 601 21.5 601L0 601Z" fill="#d2766d"></path><path d="M0 556L21.5 556.3C43 556.7 86 557.3 128.8 552.2C171.7 547 214.3 536 257.2 534.7C300 533.3 343 541.7 385.8 544.7C428.7 547.7 471.3 545.3 514.2 546.3C557 547.3 600 551.7 642.8 556.2C685.7 560.7 728.3 565.3 771.2 564.8C814 564.3 857 558.7 878.5 555.8L900 553L900 601L878.5 601C857 601 814 601 771.2 601C728.3 601 685.7 601 642.8 601C600 601 557 601 514.2 601C471.3 601 428.7 601 385.8 601C343 601 300 601 257.2 601C214.3 601 171.7 601 128.8 601C86 601 43 601 21.5 601L0 601Z" fill="#be7191"></path></svg>