<svg id="visual" viewBox="0 0 900 600" width="900" height="600" xmlns="http://www.w3.org/2000/svg" xmlns:xlink="http://www.w3.org/1999/xlink" version="1.1"><rect x="0" y="0" width="900" height="600" fill="#0e1b22"></rect><path d="M0 427L21.5 435.5C43 444 86 461 128.8 465.8C171.7 470.7 214.3 463.3 257.2 446.3C300 429.3 343 402.7 385.8 404.3C428.7 406 471.3 436 514.2 455.5C557 475 600 484 642.8 478C685.7 472 728.3 451 771.2 452.2C814 453.3 857 476.7 878.5 488.3L900 500L900 601L878.5 601C857 601 814 601 771.2 601C728.3 601 685.7 601 642.8 601C600 601 557 601 514.2 601C471.3 601 428.7 601 385.8 601C343 601 300 601 257.2 601C214.3 601 171.7 601 128.8 601C86 601 43 601 21.5 601L0 601Z" fill="#b5e0bd" stroke-linecap="round" stroke-linejoin="miter"></path></svg>